<svg xmlns="http://www.w3.org/2000/svg" version="1.1" xmlns:xlink="http://www.w3.org/1999/xlink" xmlns:svgjs="http://svgjs.com/svgjs" width="1920" height="1080" preserveAspectRatio="none" viewBox="0 0 1920 1080">
    <g mask="url(&quot;#SvgjsMask1019&quot;)" fill="none">
        <rect width="1920" height="1080" x="0" y="0" fill="url(#SvgjsLinearGradient1020)"></rect>
        <path d="M26.95 221.73L91.9 259.23L91.9 334.23L26.95 371.73L-38 334.23L-38 259.23zM221.81 109.23L286.76 146.73L286.76 221.73L221.81 259.23L156.86 221.73L156.86 146.73zM221.81 334.23L286.76 371.73L286.76 446.73L221.81 484.23L156.86 446.73L156.86 371.73zM156.86 446.73L221.81 484.23L221.81 559.23L156.86 596.73L91.9 559.23L91.9 484.23zM156.86 1121.73L221.81 1159.23L221.81 1234.23L156.86 1271.73L91.9 1234.23L91.9 1159.23zM286.76 896.73L351.72 934.23L351.72 1009.23L286.76 1046.73L221.81 1009.23L221.81 934.23zM286.76 1121.73L351.72 1159.23L351.72 1234.23L286.76 1271.73L221.81 1234.23L221.81 1159.23zM481.63 109.23L546.58 146.73L546.58 221.73L481.63 259.23L416.67 221.73L416.67 146.73zM416.67 221.73L481.63 259.23L481.63 334.23L416.67 371.73L351.72 334.23L351.72 259.23zM481.63 559.23L546.58 596.73L546.58 671.73L481.63 709.23L416.67 671.73L416.67 596.73zM416.67 1121.73L481.63 1159.23L481.63 1234.23L416.67 1271.73L351.72 1234.23L351.72 1159.23zM546.58 -3.27L611.53 34.23L611.53 109.23L546.58 146.73L481.63 109.23L481.63 34.23zM611.53 559.23L676.49 596.73L676.49 671.73L611.53 709.23L546.58 671.73L546.58 596.73zM546.58 1121.73L611.53 1159.23L611.53 1234.23L546.58 1271.73L481.63 1234.23L481.63 1159.23zM676.49 221.73L741.44 259.23L741.44 334.23L676.49 371.73L611.53 334.23L611.53 259.23zM676.49 446.73L741.44 484.23L741.44 559.23L676.49 596.73L611.53 559.23L611.53 484.23zM676.49 671.73L741.44 709.23L741.44 784.23L676.49 821.73L611.53 784.23L611.53 709.23zM871.35 109.23L936.3 146.73L936.3 221.73L871.35 259.23L806.39 221.73L806.39 146.73zM806.39 446.73L871.35 484.23L871.35 559.23L806.39 596.73L741.44 559.23L741.44 484.23zM871.35 559.23L936.3 596.73L936.3 671.73L871.35 709.23L806.39 671.73L806.39 596.73zM936.3 446.73L1001.26 484.23L1001.26 559.23L936.3 596.73L871.35 559.23L871.35 484.23zM1001.26 784.23L1066.21 821.73L1066.21 896.73L1001.26 934.23L936.3 896.73L936.3 821.73zM1001.26 1009.23L1066.21 1046.73L1066.21 1121.73L1001.26 1159.23L936.3 1121.73L936.3 1046.73zM1196.12 446.73L1261.07 484.23L1261.07 559.23L1196.12 596.73L1131.16 559.23L1131.16 484.23zM1326.03 446.73L1390.98 484.23L1390.98 559.23L1326.03 596.73L1261.07 559.23L1261.07 484.23zM1390.98 559.23L1455.93 596.73L1455.93 671.73L1390.98 709.23L1326.03 671.73L1326.03 596.73zM1390.98 1009.23L1455.93 1046.73L1455.93 1121.73L1390.98 1159.23L1326.03 1121.73L1326.03 1046.73zM1520.89 109.23L1585.84 146.73L1585.84 221.73L1520.89 259.23L1455.93 221.73L1455.93 146.73zM1585.84 671.73L1650.79 709.23L1650.79 784.23L1585.84 821.73L1520.89 784.23L1520.89 709.23zM1650.79 784.23L1715.75 821.73L1715.75 896.73L1650.79 934.23L1585.84 896.73L1585.84 821.73zM1715.75 671.73L1780.7 709.23L1780.7 784.23L1715.75 821.73L1650.79 784.23L1650.79 709.23zM1780.7 1009.23L1845.65 1046.73L1845.65 1121.73L1780.7 1159.23L1715.75 1121.73L1715.75 1046.73zM1910.61 784.23L1975.56 821.73L1975.56 896.73L1910.61 934.23L1845.65 896.73L1845.65 821.73z" stroke="#03305d" stroke-width="2"></path>
        <path d="M19.45 221.73 a7.5 7.5 0 1 0 15 0 a7.5 7.5 0 1 0 -15 0zM84.4 259.23 a7.5 7.5 0 1 0 15 0 a7.5 7.5 0 1 0 -15 0zM84.4 334.23 a7.5 7.5 0 1 0 15 0 a7.5 7.5 0 1 0 -15 0zM19.45 371.73 a7.5 7.5 0 1 0 15 0 a7.5 7.5 0 1 0 -15 0zM-45.5 334.23 a7.5 7.5 0 1 0 15 0 a7.5 7.5 0 1 0 -15 0zM-45.5 259.23 a7.5 7.5 0 1 0 15 0 a7.5 7.5 0 1 0 -15 0zM214.31 109.23 a7.5 7.5 0 1 0 15 0 a7.5 7.5 0 1 0 -15 0zM279.26 146.73 a7.5 7.5 0 1 0 15 0 a7.5 7.5 0 1 0 -15 0zM279.26 221.73 a7.5 7.5 0 1 0 15 0 a7.5 7.5 0 1 0 -15 0zM214.31 259.23 a7.5 7.5 0 1 0 15 0 a7.5 7.5 0 1 0 -15 0zM149.36 221.73 a7.5 7.5 0 1 0 15 0 a7.5 7.5 0 1 0 -15 0zM149.36 146.73 a7.5 7.5 0 1 0 15 0 a7.5 7.5 0 1 0 -15 0zM214.31 334.23 a7.5 7.5 0 1 0 15 0 a7.5 7.5 0 1 0 -15 0zM279.26 371.73 a7.5 7.5 0 1 0 15 0 a7.5 7.5 0 1 0 -15 0zM279.26 446.73 a7.5 7.5 0 1 0 15 0 a7.5 7.5 0 1 0 -15 0zM214.31 484.23 a7.5 7.5 0 1 0 15 0 a7.5 7.5 0 1 0 -15 0zM149.36 446.73 a7.5 7.5 0 1 0 15 0 a7.5 7.5 0 1 0 -15 0zM149.36 371.73 a7.5 7.5 0 1 0 15 0 a7.5 7.5 0 1 0 -15 0zM214.31 559.23 a7.5 7.5 0 1 0 15 0 a7.5 7.5 0 1 0 -15 0zM149.36 596.73 a7.5 7.5 0 1 0 15 0 a7.5 7.5 0 1 0 -15 0zM84.4 559.23 a7.5 7.5 0 1 0 15 0 a7.5 7.5 0 1 0 -15 0zM84.4 484.23 a7.5 7.5 0 1 0 15 0 a7.5 7.5 0 1 0 -15 0zM149.36 1121.73 a7.5 7.5 0 1 0 15 0 a7.5 7.5 0 1 0 -15 0zM214.31 1159.23 a7.5 7.5 0 1 0 15 0 a7.5 7.5 0 1 0 -15 0zM214.31 1234.23 a7.5 7.5 0 1 0 15 0 a7.5 7.5 0 1 0 -15 0zM149.36 1271.73 a7.5 7.5 0 1 0 15 0 a7.5 7.5 0 1 0 -15 0zM84.4 1234.23 a7.5 7.5 0 1 0 15 0 a7.5 7.5 0 1 0 -15 0zM84.4 1159.23 a7.5 7.5 0 1 0 15 0 a7.5 7.5 0 1 0 -15 0zM279.26 896.73 a7.5 7.5 0 1 0 15 0 a7.5 7.5 0 1 0 -15 0zM344.22 934.23 a7.5 7.5 0 1 0 15 0 a7.5 7.5 0 1 0 -15 0zM344.22 1009.23 a7.5 7.5 0 1 0 15 0 a7.5 7.5 0 1 0 -15 0zM279.26 1046.73 a7.5 7.5 0 1 0 15 0 a7.5 7.5 0 1 0 -15 0zM214.31 1009.23 a7.5 7.5 0 1 0 15 0 a7.5 7.5 0 1 0 -15 0zM214.31 934.23 a7.5 7.5 0 1 0 15 0 a7.5 7.5 0 1 0 -15 0zM279.26 1121.73 a7.5 7.5 0 1 0 15 0 a7.5 7.5 0 1 0 -15 0zM344.22 1159.23 a7.5 7.5 0 1 0 15 0 a7.5 7.5 0 1 0 -15 0zM344.22 1234.23 a7.5 7.5 0 1 0 15 0 a7.5 7.5 0 1 0 -15 0zM279.26 1271.73 a7.5 7.5 0 1 0 15 0 a7.5 7.5 0 1 0 -15 0zM474.13 109.23 a7.5 7.5 0 1 0 15 0 a7.5 7.5 0 1 0 -15 0zM539.08 146.73 a7.5 7.5 0 1 0 15 0 a7.5 7.5 0 1 0 -15 0zM539.08 221.73 a7.5 7.5 0 1 0 15 0 a7.5 7.5 0 1 0 -15 0zM474.13 259.23 a7.5 7.5 0 1 0 15 0 a7.5 7.5 0 1 0 -15 0zM409.17 221.73 a7.5 7.5 0 1 0 15 0 a7.5 7.5 0 1 0 -15 0zM409.17 146.73 a7.5 7.5 0 1 0 15 0 a7.5 7.5 0 1 0 -15 0zM474.13 334.23 a7.5 7.5 0 1 0 15 0 a7.5 7.5 0 1 0 -15 0zM409.17 371.73 a7.5 7.5 0 1 0 15 0 a7.5 7.5 0 1 0 -15 0zM344.22 334.23 a7.5 7.5 0 1 0 15 0 a7.5 7.5 0 1 0 -15 0zM344.22 259.23 a7.5 7.5 0 1 0 15 0 a7.5 7.5 0 1 0 -15 0zM474.13 559.23 a7.5 7.5 0 1 0 15 0 a7.5 7.5 0 1 0 -15 0zM539.08 596.73 a7.5 7.5 0 1 0 15 0 a7.5 7.5 0 1 0 -15 0zM539.08 671.73 a7.5 7.5 0 1 0 15 0 a7.5 7.5 0 1 0 -15 0zM474.13 709.23 a7.5 7.5 0 1 0 15 0 a7.5 7.5 0 1 0 -15 0zM409.17 671.73 a7.5 7.5 0 1 0 15 0 a7.5 7.5 0 1 0 -15 0zM409.17 596.73 a7.5 7.5 0 1 0 15 0 a7.5 7.5 0 1 0 -15 0zM409.17 1121.73 a7.5 7.5 0 1 0 15 0 a7.5 7.5 0 1 0 -15 0zM474.13 1159.23 a7.5 7.5 0 1 0 15 0 a7.5 7.5 0 1 0 -15 0zM474.13 1234.23 a7.5 7.5 0 1 0 15 0 a7.5 7.5 0 1 0 -15 0zM409.17 1271.73 a7.5 7.5 0 1 0 15 0 a7.5 7.5 0 1 0 -15 0zM539.08 -3.27 a7.5 7.5 0 1 0 15 0 a7.5 7.5 0 1 0 -15 0zM604.03 34.23 a7.5 7.5 0 1 0 15 0 a7.5 7.5 0 1 0 -15 0zM604.03 109.23 a7.5 7.5 0 1 0 15 0 a7.5 7.5 0 1 0 -15 0zM474.13 34.23 a7.5 7.5 0 1 0 15 0 a7.5 7.5 0 1 0 -15 0zM604.03 559.23 a7.5 7.5 0 1 0 15 0 a7.5 7.5 0 1 0 -15 0zM668.99 596.73 a7.5 7.5 0 1 0 15 0 a7.5 7.5 0 1 0 -15 0zM668.99 671.73 a7.5 7.5 0 1 0 15 0 a7.5 7.5 0 1 0 -15 0zM604.03 709.23 a7.5 7.5 0 1 0 15 0 a7.5 7.5 0 1 0 -15 0zM539.08 1121.73 a7.5 7.5 0 1 0 15 0 a7.5 7.5 0 1 0 -15 0zM604.03 1159.23 a7.5 7.5 0 1 0 15 0 a7.5 7.5 0 1 0 -15 0zM604.03 1234.23 a7.5 7.5 0 1 0 15 0 a7.5 7.5 0 1 0 -15 0zM539.08 1271.73 a7.5 7.5 0 1 0 15 0 a7.5 7.5 0 1 0 -15 0zM668.99 221.73 a7.5 7.5 0 1 0 15 0 a7.5 7.5 0 1 0 -15 0zM733.94 259.23 a7.5 7.5 0 1 0 15 0 a7.5 7.5 0 1 0 -15 0zM733.94 334.23 a7.5 7.5 0 1 0 15 0 a7.5 7.5 0 1 0 -15 0zM668.99 371.73 a7.5 7.5 0 1 0 15 0 a7.5 7.5 0 1 0 -15 0zM604.03 334.23 a7.5 7.5 0 1 0 15 0 a7.5 7.5 0 1 0 -15 0zM604.03 259.23 a7.5 7.5 0 1 0 15 0 a7.5 7.5 0 1 0 -15 0zM668.99 446.73 a7.5 7.5 0 1 0 15 0 a7.5 7.5 0 1 0 -15 0zM733.94 484.23 a7.5 7.5 0 1 0 15 0 a7.5 7.5 0 1 0 -15 0zM733.94 559.23 a7.5 7.5 0 1 0 15 0 a7.5 7.5 0 1 0 -15 0zM604.03 484.23 a7.5 7.5 0 1 0 15 0 a7.5 7.5 0 1 0 -15 0zM733.94 709.23 a7.5 7.5 0 1 0 15 0 a7.5 7.5 0 1 0 -15 0zM733.94 784.23 a7.5 7.5 0 1 0 15 0 a7.5 7.5 0 1 0 -15 0zM668.99 821.73 a7.5 7.5 0 1 0 15 0 a7.5 7.5 0 1 0 -15 0zM604.03 784.23 a7.5 7.5 0 1 0 15 0 a7.5 7.5 0 1 0 -15 0zM863.85 109.23 a7.5 7.5 0 1 0 15 0 a7.5 7.5 0 1 0 -15 0zM928.8 146.73 a7.5 7.5 0 1 0 15 0 a7.5 7.5 0 1 0 -15 0zM928.8 221.73 a7.5 7.5 0 1 0 15 0 a7.5 7.5 0 1 0 -15 0zM863.85 259.23 a7.5 7.5 0 1 0 15 0 a7.5 7.5 0 1 0 -15 0zM798.89 221.73 a7.5 7.5 0 1 0 15 0 a7.5 7.5 0 1 0 -15 0zM798.89 146.73 a7.5 7.5 0 1 0 15 0 a7.5 7.5 0 1 0 -15 0zM798.89 446.73 a7.5 7.5 0 1 0 15 0 a7.5 7.5 0 1 0 -15 0zM863.85 484.23 a7.5 7.5 0 1 0 15 0 a7.5 7.5 0 1 0 -15 0zM863.85 559.23 a7.5 7.5 0 1 0 15 0 a7.5 7.5 0 1 0 -15 0zM798.89 596.73 a7.5 7.5 0 1 0 15 0 a7.5 7.5 0 1 0 -15 0zM928.8 596.73 a7.5 7.5 0 1 0 15 0 a7.5 7.5 0 1 0 -15 0zM928.8 671.73 a7.5 7.5 0 1 0 15 0 a7.5 7.5 0 1 0 -15 0zM863.85 709.23 a7.5 7.5 0 1 0 15 0 a7.5 7.5 0 1 0 -15 0zM798.89 671.73 a7.5 7.5 0 1 0 15 0 a7.5 7.5 0 1 0 -15 0zM928.8 446.73 a7.5 7.5 0 1 0 15 0 a7.5 7.5 0 1 0 -15 0zM993.76 484.23 a7.5 7.5 0 1 0 15 0 a7.5 7.5 0 1 0 -15 0zM993.76 559.23 a7.5 7.5 0 1 0 15 0 a7.5 7.5 0 1 0 -15 0zM993.76 784.23 a7.5 7.5 0 1 0 15 0 a7.5 7.5 0 1 0 -15 0zM1058.71 821.73 a7.5 7.5 0 1 0 15 0 a7.5 7.5 0 1 0 -15 0zM1058.71 896.73 a7.5 7.5 0 1 0 15 0 a7.5 7.5 0 1 0 -15 0zM993.76 934.23 a7.5 7.5 0 1 0 15 0 a7.5 7.5 0 1 0 -15 0zM928.8 896.73 a7.5 7.5 0 1 0 15 0 a7.5 7.5 0 1 0 -15 0zM928.8 821.73 a7.5 7.5 0 1 0 15 0 a7.5 7.5 0 1 0 -15 0zM993.76 1009.23 a7.5 7.5 0 1 0 15 0 a7.5 7.5 0 1 0 -15 0zM1058.71 1046.73 a7.5 7.5 0 1 0 15 0 a7.5 7.5 0 1 0 -15 0zM1058.71 1121.73 a7.5 7.5 0 1 0 15 0 a7.5 7.5 0 1 0 -15 0zM993.76 1159.23 a7.5 7.5 0 1 0 15 0 a7.5 7.5 0 1 0 -15 0zM928.8 1121.73 a7.5 7.5 0 1 0 15 0 a7.5 7.5 0 1 0 -15 0zM928.8 1046.73 a7.5 7.5 0 1 0 15 0 a7.5 7.5 0 1 0 -15 0zM1188.62 446.73 a7.5 7.5 0 1 0 15 0 a7.5 7.5 0 1 0 -15 0zM1253.57 484.23 a7.5 7.5 0 1 0 15 0 a7.5 7.5 0 1 0 -15 0zM1253.57 559.23 a7.5 7.5 0 1 0 15 0 a7.5 7.5 0 1 0 -15 0zM1188.62 596.73 a7.5 7.5 0 1 0 15 0 a7.5 7.5 0 1 0 -15 0zM1123.66 559.23 a7.5 7.5 0 1 0 15 0 a7.5 7.5 0 1 0 -15 0zM1123.66 484.23 a7.5 7.5 0 1 0 15 0 a7.5 7.5 0 1 0 -15 0zM1318.53 446.73 a7.5 7.5 0 1 0 15 0 a7.5 7.5 0 1 0 -15 0zM1383.48 484.23 a7.5 7.5 0 1 0 15 0 a7.5 7.5 0 1 0 -15 0zM1383.48 559.23 a7.5 7.5 0 1 0 15 0 a7.5 7.5 0 1 0 -15 0zM1318.53 596.73 a7.5 7.5 0 1 0 15 0 a7.5 7.5 0 1 0 -15 0zM1448.43 596.73 a7.5 7.5 0 1 0 15 0 a7.5 7.5 0 1 0 -15 0zM1448.43 671.73 a7.5 7.5 0 1 0 15 0 a7.5 7.5 0 1 0 -15 0zM1383.48 709.23 a7.5 7.5 0 1 0 15 0 a7.5 7.5 0 1 0 -15 0zM1318.53 671.73 a7.5 7.5 0 1 0 15 0 a7.5 7.5 0 1 0 -15 0zM1383.48 1009.23 a7.5 7.5 0 1 0 15 0 a7.5 7.5 0 1 0 -15 0zM1448.43 1046.73 a7.5 7.5 0 1 0 15 0 a7.5 7.5 0 1 0 -15 0zM1448.43 1121.73 a7.5 7.5 0 1 0 15 0 a7.5 7.5 0 1 0 -15 0zM1383.48 1159.23 a7.5 7.5 0 1 0 15 0 a7.5 7.5 0 1 0 -15 0zM1318.53 1121.73 a7.5 7.5 0 1 0 15 0 a7.5 7.5 0 1 0 -15 0zM1318.53 1046.73 a7.5 7.5 0 1 0 15 0 a7.5 7.5 0 1 0 -15 0zM1513.39 109.23 a7.5 7.5 0 1 0 15 0 a7.5 7.5 0 1 0 -15 0zM1578.34 146.73 a7.5 7.5 0 1 0 15 0 a7.5 7.5 0 1 0 -15 0zM1578.34 221.73 a7.5 7.5 0 1 0 15 0 a7.5 7.5 0 1 0 -15 0zM1513.39 259.23 a7.5 7.5 0 1 0 15 0 a7.5 7.5 0 1 0 -15 0zM1448.43 221.73 a7.5 7.5 0 1 0 15 0 a7.5 7.5 0 1 0 -15 0zM1448.43 146.73 a7.5 7.5 0 1 0 15 0 a7.5 7.5 0 1 0 -15 0zM1578.34 671.73 a7.5 7.5 0 1 0 15 0 a7.5 7.5 0 1 0 -15 0zM1643.29 709.23 a7.5 7.5 0 1 0 15 0 a7.5 7.5 0 1 0 -15 0zM1643.29 784.23 a7.5 7.5 0 1 0 15 0 a7.5 7.5 0 1 0 -15 0zM1578.34 821.73 a7.5 7.5 0 1 0 15 0 a7.5 7.5 0 1 0 -15 0zM1513.39 784.23 a7.5 7.5 0 1 0 15 0 a7.5 7.5 0 1 0 -15 0zM1513.39 709.23 a7.5 7.5 0 1 0 15 0 a7.5 7.5 0 1 0 -15 0zM1708.25 821.73 a7.5 7.5 0 1 0 15 0 a7.5 7.5 0 1 0 -15 0zM1708.25 896.73 a7.5 7.5 0 1 0 15 0 a7.5 7.5 0 1 0 -15 0zM1643.29 934.23 a7.5 7.5 0 1 0 15 0 a7.5 7.5 0 1 0 -15 0zM1578.34 896.73 a7.5 7.5 0 1 0 15 0 a7.5 7.5 0 1 0 -15 0zM1708.25 671.73 a7.5 7.5 0 1 0 15 0 a7.5 7.5 0 1 0 -15 0zM1773.2 709.23 a7.5 7.5 0 1 0 15 0 a7.5 7.5 0 1 0 -15 0zM1773.2 784.23 a7.5 7.5 0 1 0 15 0 a7.5 7.5 0 1 0 -15 0zM1773.2 1009.23 a7.5 7.5 0 1 0 15 0 a7.5 7.5 0 1 0 -15 0zM1838.15 1046.73 a7.5 7.5 0 1 0 15 0 a7.5 7.5 0 1 0 -15 0zM1838.15 1121.73 a7.5 7.5 0 1 0 15 0 a7.5 7.5 0 1 0 -15 0zM1773.2 1159.23 a7.5 7.5 0 1 0 15 0 a7.5 7.5 0 1 0 -15 0zM1708.25 1121.73 a7.5 7.5 0 1 0 15 0 a7.5 7.5 0 1 0 -15 0zM1708.25 1046.73 a7.5 7.5 0 1 0 15 0 a7.5 7.5 0 1 0 -15 0zM1903.11 784.23 a7.5 7.5 0 1 0 15 0 a7.5 7.5 0 1 0 -15 0zM1968.06 821.73 a7.5 7.5 0 1 0 15 0 a7.5 7.5 0 1 0 -15 0zM1968.06 896.73 a7.5 7.5 0 1 0 15 0 a7.5 7.5 0 1 0 -15 0zM1903.11 934.23 a7.5 7.5 0 1 0 15 0 a7.5 7.5 0 1 0 -15 0zM1838.15 896.73 a7.5 7.5 0 1 0 15 0 a7.5 7.5 0 1 0 -15 0zM1838.15 821.73 a7.5 7.5 0 1 0 15 0 a7.5 7.5 0 1 0 -15 0z" fill="#03305d"></path>
        <path d="M35.12 149.22L78.42 174.22L78.42 224.22L35.12 249.22L-8.18 224.22L-8.18 174.22zM78.42 224.22L121.72 249.22L121.72 299.22L78.42 324.22L35.12 299.22L35.12 249.22zM35.12 449.22L78.42 474.22L78.42 524.22L35.12 549.22L-8.18 524.22L-8.18 474.22zM35.12 599.22L78.42 624.22L78.42 674.22L35.12 699.22L-8.18 674.22L-8.18 624.22zM78.42 674.22L121.72 699.22L121.72 749.22L78.42 774.22L35.12 749.22L35.12 699.22zM35.12 1049.22L78.42 1074.22L78.42 1124.22L35.12 1149.22L-8.18 1124.22L-8.18 1074.22zM121.72 749.22L165.03 774.22L165.03 824.22L121.72 849.22L78.42 824.22L78.42 774.22zM251.63 74.22L294.94 99.22L294.94 149.22L251.63 174.22L208.33 149.22L208.33 99.22zM294.94 449.22L338.24 474.22L338.24 524.22L294.94 549.22L251.63 524.22L251.63 474.22zM338.24 974.22L381.54 999.22L381.54 1049.22L338.24 1074.22L294.94 1049.22L294.94 999.22zM381.54 -0.78L424.84 24.22L424.84 74.22L381.54 99.22L338.24 74.22L338.24 24.22zM511.45 224.22L554.75 249.22L554.75 299.22L511.45 324.22L468.15 299.22L468.15 249.22zM468.15 1049.22L511.45 1074.22L511.45 1124.22L468.15 1149.22L424.84 1124.22L424.84 1074.22zM641.36 149.22L684.66 174.22L684.66 224.22L641.36 249.22L598.05 224.22L598.05 174.22zM641.36 899.22L684.66 924.22L684.66 974.22L641.36 999.22L598.05 974.22L598.05 924.22zM771.26 224.22L814.57 249.22L814.57 299.22L771.26 324.22L727.96 299.22L727.96 249.22zM771.26 374.22L814.57 399.22L814.57 449.22L771.26 474.22L727.96 449.22L727.96 399.22zM857.87 974.22L901.17 999.22L901.17 1049.22L857.87 1074.22L814.57 1049.22L814.57 999.22zM814.57 1049.22L857.87 1074.22L857.87 1124.22L814.57 1149.22L771.26 1124.22L771.26 1074.22zM944.47 74.22L987.78 99.22L987.78 149.22L944.47 174.22L901.17 149.22L901.17 99.22zM944.47 224.22L987.78 249.22L987.78 299.22L944.47 324.22L901.17 299.22L901.17 249.22zM901.17 749.22L944.47 774.22L944.47 824.22L901.17 849.22L857.87 824.22L857.87 774.22zM987.78 149.22L1031.08 174.22L1031.08 224.22L987.78 249.22L944.47 224.22L944.47 174.22zM1031.08 224.22L1074.38 249.22L1074.38 299.22L1031.08 324.22L987.78 299.22L987.78 249.22zM1031.08 524.22L1074.38 549.22L1074.38 599.22L1031.08 624.22L987.78 599.22L987.78 549.22zM987.78 599.22L1031.08 624.22L1031.08 674.22L987.78 699.22L944.47 674.22L944.47 624.22zM987.78 749.22L1031.08 774.22L1031.08 824.22L987.78 849.22L944.47 824.22L944.47 774.22zM1031.08 974.22L1074.38 999.22L1074.38 1049.22L1031.08 1074.22L987.78 1049.22L987.78 999.22zM1117.68 524.22L1160.98 549.22L1160.98 599.22L1117.68 624.22L1074.38 599.22L1074.38 549.22zM1074.38 749.22L1117.68 774.22L1117.68 824.22L1074.38 849.22L1031.08 824.22L1031.08 774.22zM1117.68 824.22L1160.98 849.22L1160.98 899.22L1117.68 924.22L1074.38 899.22L1074.38 849.22zM1160.98 149.22L1204.29 174.22L1204.29 224.22L1160.98 249.22L1117.68 224.22L1117.68 174.22zM1204.29 824.22L1247.59 849.22L1247.59 899.22L1204.29 924.22L1160.98 899.22L1160.98 849.22zM1290.89 74.22L1334.19 99.22L1334.19 149.22L1290.89 174.22L1247.59 149.22L1247.59 99.22zM1247.59 299.22L1290.89 324.22L1290.89 374.22L1247.59 399.22L1204.29 374.22L1204.29 324.22zM1247.59 449.22L1290.89 474.22L1290.89 524.22L1247.59 549.22L1204.29 524.22L1204.29 474.22zM1334.19 749.22L1377.5 774.22L1377.5 824.22L1334.19 849.22L1290.89 824.22L1290.89 774.22zM1420.8 149.22L1464.1 174.22L1464.1 224.22L1420.8 249.22L1377.5 224.22L1377.5 174.22zM1420.8 299.22L1464.1 324.22L1464.1 374.22L1420.8 399.22L1377.5 374.22L1377.5 324.22zM1420.8 449.22L1464.1 474.22L1464.1 524.22L1420.8 549.22L1377.5 524.22L1377.5 474.22zM1507.4 -0.78L1550.71 24.22L1550.71 74.22L1507.4 99.22L1464.1 74.22L1464.1 24.22zM1550.71 524.22L1594.01 549.22L1594.01 599.22L1550.71 624.22L1507.4 599.22L1507.4 549.22zM1507.4 599.22L1550.71 624.22L1550.71 674.22L1507.4 699.22L1464.1 674.22L1464.1 624.22zM1637.31 974.22L1680.62 999.22L1680.62 1049.22L1637.31 1074.22L1594.01 1049.22L1594.01 999.22zM1810.52 374.22L1853.83 399.22L1853.83 449.22L1810.52 474.22L1767.22 449.22L1767.22 399.22zM1810.52 824.22L1853.83 849.22L1853.83 899.22L1810.52 924.22L1767.22 899.22L1767.22 849.22zM1767.22 899.22L1810.52 924.22L1810.52 974.22L1767.22 999.22L1723.92 974.22L1723.92 924.22zM1853.83 449.22L1897.13 474.22L1897.13 524.22L1853.83 549.22L1810.52 524.22L1810.52 474.22zM1897.13 974.22L1940.43 999.22L1940.43 1049.22L1897.13 1074.22L1853.83 1049.22L1853.83 999.22zM1853.83 1049.22L1897.13 1074.22L1897.13 1124.22L1853.83 1149.22L1810.52 1124.22L1810.52 1074.22zM1983.73 74.22L2027.04 99.22L2027.04 149.22L1983.73 174.22L1940.43 149.22L1940.43 99.22zM1983.73 824.22L2027.04 849.22L2027.04 899.22L1983.73 924.22L1940.43 899.22L1940.43 849.22z" stroke="rgba(6, 80, 156, 0.93)" stroke-width="2"></path>
    </g>
    <defs>
        <mask id="SvgjsMask1019">
            <rect width="1920" height="1080" fill="#ffffff"></rect>
        </mask>
        <linearGradient x1="10.94%" y1="-19.44%" x2="89.06%" y2="119.44%" gradientUnits="userSpaceOnUse" id="SvgjsLinearGradient1020">
            <stop stop-color="#0e2a47" offset="0"></stop>
            <stop stop-color="#00459e" offset="1"></stop>
        </linearGradient>
    </defs>
</svg>