<?xml version="1.0" encoding="iso-8859-1"?>
<!-- Generator: Adobe Illustrator 19.0.0, SVG Export Plug-In . SVG Version: 6.00 Build 0)  -->
<svg version="1.1" id="Layer_1" xmlns="http://www.w3.org/2000/svg" xmlns:xlink="http://www.w3.org/1999/xlink" x="0px" y="0px"
	 viewBox="0 0 512 512" style="enable-background:new 0 0 512 512;" xml:space="preserve">
<g>
	<path style="fill:#FEE187;" d="M110.637,58.041c-27.591,26.124-94.515,89.331-96.16,89.331l56.173,79.58l39.986-8.87V58.041z"/>
	<path style="fill:#FEE187;" d="M401.362,218.082l39.986,8.87l56.173-79.58c-1.645,0-68.567-63.205-96.16-89.331V218.082z"/>
	<path style="fill:#FEE187;" d="M329.006,85.957c0,40.328-32.691,73.005-73.006,73.005s-73.006-32.677-73.006-73.005
		c0-9.968,2.007-19.491,5.63-28.153h134.75C326.999,66.467,329.006,75.99,329.006,85.957z"/>
</g>
<path style="fill:#FFC61B;" d="M510.376,140.711c-1.215-2.345-3.018-4.264-5.176-5.613c-6.024-4.901-41.871-38.329-92.454-86.215
	c-2.651-3.378-6.759-5.553-11.385-5.553h-77.986H188.624h-77.986c-4.625,0-8.734,2.177-11.385,5.553
	c-50.582,47.887-86.43,81.316-92.454,86.217c-2.157,1.349-3.961,3.268-5.176,5.613c-2.489,4.802-2.092,10.59,1.026,15.009
	l56.173,79.58c2.748,3.894,7.188,6.128,11.827,6.128c1.041,0,2.092-0.111,3.137-0.343l22.373-4.963v218.07
	c0,7.994,6.483,14.477,14.477,14.477h290.725c7.994,0,14.477-6.483,14.477-14.477V318.075c0-7.994-6.483-14.477-14.477-14.477
	H182.995c-7.994,0-14.477,6.483-14.477,14.477s6.483,14.477,14.477,14.477h203.891v107.164H125.115V72.284h44.479
	c-0.706,4.495-1.076,9.058-1.076,13.674c0,48.238,39.244,87.483,87.483,87.483s87.483-39.244,87.483-87.483
	c0-4.615-0.369-9.179-1.076-13.674h44.479v145.798c0,6.787,4.715,12.663,11.342,14.134l39.986,8.87
	c1.045,0.232,2.095,0.343,3.137,0.343c4.639,0,9.079-2.235,11.827-6.128l56.173-79.58
	C512.469,151.302,512.865,145.514,510.376,140.711z M11.225,133.264c0.486-0.111,1.005-0.203,1.552-0.268
	C12.252,133.058,11.734,133.146,11.225,133.264z M76.923,210.732l-43.029-60.958c0.693-0.633,1.419-1.296,2.185-1.994
	c6.379-5.824,15.342-14.136,26.638-24.703c10.93-10.224,22.797-21.39,33.444-31.433v114.821L76.923,210.732z M314.528,85.957
	c0,32.273-26.256,58.529-58.529,58.529s-58.529-26.256-58.529-58.529c0-4.653,0.537-9.226,1.603-13.674h113.851
	C313.991,76.731,314.528,81.304,314.528,85.957z M435.078,210.732l-19.237-4.266V91.644c10.647,10.043,22.514,21.209,33.444,31.433
	c11.298,10.567,20.26,18.877,26.638,24.703c0.764,0.698,1.491,1.361,2.185,1.994L435.078,210.732z M499.224,132.996
	c0.547,0.064,1.066,0.155,1.552,0.268C500.266,133.146,499.748,133.058,499.224,132.996z"/>
<g>
</g>
<g>
</g>
<g>
</g>
<g>
</g>
<g>
</g>
<g>
</g>
<g>
</g>
<g>
</g>
<g>
</g>
<g>
</g>
<g>
</g>
<g>
</g>
<g>
</g>
<g>
</g>
<g>
</g>
</svg>
